<?xml version="1.0" standalone="no"?>
<!DOCTYPE svg PUBLIC "-//W3C//DTD SVG 20010904//EN"
 "http://www.w3.org/TR/2001/REC-SVG-20010904/DTD/svg10.dtd">
<svg version="1.0" xmlns="http://www.w3.org/2000/svg"
 width="1152.000000pt" height="1152.000000pt" viewBox="0 0 1152.000000 1152.000000"
 preserveAspectRatio="xMidYMid meet">
<metadata>
Created by potrace 1.14, written by Peter Selinger 2001-2017
</metadata>
<g transform="translate(0.000000,1152.000000) scale(0.100000,-0.100000)"
fill="#000000" stroke="none">
<path d="M5220 10125 l0 -45 -135 0 -135 0 0 -45 0 -45 -90 0 -90 0 0 -45 0
-45 -90 0 -90 0 0 -45 0 -45 -45 0 -45 0 0 -45 0 -45 -90 0 -90 0 0 -45 0 -45
-45 0 -45 0 0 -45 0 -45 -45 0 -45 0 0 -45 0 -45 -45 0 -45 0 0 -45 0 -45 -45
0 -45 0 0 -90 0 -90 -45 0 -45 0 0 -90 0 -90 -45 0 -45 0 0 -90 0 -90 -45 0
-45 0 0 -90 0 -90 -45 0 -45 0 0 -90 0 -90 -45 0 -45 0 0 -45 0 -45 -45 0 -45
0 0 -315 0 -315 -45 0 -45 0 0 -45 0 -45 -45 0 -45 0 0 -45 0 -45 -45 0 -45 0
0 -45 0 -45 -45 0 -45 0 0 -45 0 -45 -45 0 -45 0 0 -90 0 -90 -45 0 -45 0 0
-90 0 -90 -45 0 -45 0 0 -315 0 -315 45 0 45 0 0 -90 0 -90 45 0 45 0 0 -90 0
-90 45 0 45 0 0 -45 0 -45 45 0 45 0 0 -90 0 -90 45 0 45 0 0 -45 0 -45 45 0
45 0 0 -45 0 -45 45 0 45 0 0 -45 0 -45 45 0 45 0 0 -45 0 -45 90 0 90 0 0
-45 0 -45 45 0 45 0 0 -45 0 -45 90 0 90 0 0 -180 0 -180 45 0 45 0 0 -45 0
-45 -270 0 -270 0 0 -45 0 -45 -90 0 -90 0 0 -45 0 -45 -90 0 -90 0 0 -45 0
-45 -90 0 -90 0 0 -45 0 -45 -45 0 -45 0 0 -45 0 -45 -90 0 -90 0 0 -45 0 -45
-45 0 -45 0 0 -45 0 -45 -45 0 -45 0 0 -90 0 -90 -45 0 -45 0 0 -45 0 -45 -45
0 -45 0 0 -45 0 -45 -45 0 -45 0 0 -45 0 -45 -45 0 -45 0 0 -90 0 -90 -45 0
-45 0 0 -180 0 -180 45 0 45 0 0 -45 0 -45 -45 0 -45 0 0 -360 0 -360 45 0 45
0 0 -225 0 -225 45 0 45 0 0 -45 0 -45 45 0 45 0 0 -45 0 -45 45 0 45 0 0 -45
0 -45 45 0 45 0 0 45 0 45 45 0 45 0 0 45 0 45 45 0 45 0 0 45 0 45 45 0 45 0
0 -90 0 -90 45 0 45 0 0 -45 0 -45 45 0 45 0 0 90 0 90 45 0 45 0 0 -45 0 -45
45 0 45 0 0 45 0 45 45 0 45 0 0 45 0 45 45 0 45 0 0 45 0 45 45 0 45 0 0 -45
0 -45 45 0 45 0 0 -90 0 -90 45 0 45 0 0 45 0 45 45 0 45 0 0 -45 0 -45 45 0
45 0 0 -45 0 -45 45 0 45 0 0 -45 0 -45 45 0 45 0 0 -45 0 -45 315 0 315 0 0
45 0 45 990 0 990 0 0 45 0 45 45 0 45 0 0 45 0 45 45 0 45 0 0 45 0 45 45 0
45 0 0 180 0 180 45 0 45 0 0 315 0 315 45 0 45 0 0 -135 0 -135 90 0 90 0 0
-45 0 -45 -90 0 -90 0 0 -90 0 -90 45 0 45 0 0 -90 0 -90 45 0 45 0 0 -45 0
-45 45 0 45 0 0 -45 0 -45 45 0 45 0 0 -45 0 -45 45 0 45 0 0 45 0 45 45 0 45
0 0 45 0 45 45 0 45 0 0 90 0 90 45 0 45 0 0 45 0 45 45 0 45 0 0 -90 0 -90
45 0 45 0 0 -45 0 -45 45 0 45 0 0 -45 0 -45 45 0 45 0 0 45 0 45 45 0 45 0 0
90 0 90 45 0 45 0 0 360 0 360 -45 0 -45 0 0 90 0 90 -45 0 -45 0 0 90 0 90
45 0 45 0 0 180 0 180 45 0 45 0 0 135 0 135 -45 0 -45 0 0 45 0 45 -45 0 -45
0 0 45 0 45 -45 0 -45 0 0 45 0 45 -45 0 -45 0 0 45 0 45 -45 0 -45 0 0 45 0
45 -45 0 -45 0 0 45 0 45 -90 0 -90 0 0 45 0 45 -90 0 -90 0 0 45 0 45 -90 0
-90 0 0 45 0 45 -135 0 -135 0 0 45 0 45 -225 0 -225 0 0 -45 0 -45 -135 0
-135 0 0 225 0 225 -45 0 -45 0 0 90 0 90 -45 0 -45 0 0 45 0 45 -45 0 -45 0
0 45 0 45 -45 0 -45 0 0 45 0 45 -90 0 -90 0 0 45 0 45 -45 0 -45 0 0 45 0 45
90 0 90 0 0 45 0 45 675 0 675 0 0 45 0 45 135 0 135 0 0 45 0 45 90 0 90 0 0
45 0 45 90 0 90 0 0 45 0 45 45 0 45 0 0 45 0 45 45 0 45 0 0 45 0 45 45 0 45
0 0 45 0 45 45 0 45 0 0 45 0 45 -45 0 -45 0 0 -45 0 -45 -45 0 -45 0 0 -45 0
-45 -90 0 -90 0 0 -45 0 -45 -90 0 -90 0 0 -45 0 -45 -90 0 -90 0 0 -45 0 -45
-135 0 -135 0 0 -45 0 -45 -675 0 -675 0 0 45 0 45 -135 0 -135 0 0 45 0 45
-90 0 -90 0 0 45 0 45 -90 0 -90 0 0 45 0 45 -90 0 -90 0 0 45 0 45 -45 0 -45
0 0 45 0 45 -45 0 -45 0 0 -45 0 -45 -45 0 -45 0 0 90 0 90 45 0 45 0 0 45 0
45 -45 0 -45 0 0 90 0 90 -45 0 -45 0 0 90 0 90 -45 0 -45 0 0 45 0 45 -45 0
-45 0 0 180 0 180 -45 0 -45 0 0 45 0 45 -45 0 -45 0 0 315 0 315 45 0 45 0 0
45 0 45 270 0 270 0 0 45 0 45 90 0 90 0 0 45 0 45 180 0 180 0 0 45 0 45
1035 0 1035 0 0 -45 0 -45 180 0 180 0 0 -45 0 -45 90 0 90 0 0 -45 0 -45 270
0 270 0 0 -45 0 -45 45 0 45 0 0 -315 0 -315 -45 0 -45 0 0 -45 0 -45 -45 0
-45 0 0 -180 0 -180 -45 0 -45 0 0 -45 0 -45 -45 0 -45 0 0 -90 0 -90 -45 0
-45 0 0 -90 0 -90 -45 0 -45 0 0 -45 0 -45 45 0 45 0 0 45 0 45 45 0 45 0 0
90 0 90 45 0 45 0 0 90 0 90 45 0 45 0 0 45 0 45 45 0 45 0 0 90 0 90 45 0 45
0 0 90 0 90 45 0 45 0 0 405 0 405 -45 0 -45 0 0 45 0 45 -45 0 -45 0 0 45 0
45 -45 0 -45 0 0 135 0 135 -90 0 -90 0 0 -45 0 -45 -135 0 -135 0 0 45 0 45
-90 0 -90 0 0 45 0 45 -90 0 -90 0 0 45 0 45 -45 0 -45 0 0 45 0 45 -45 0 -45
0 0 180 0 180 45 0 45 0 0 45 0 45 45 0 45 0 0 45 0 45 45 0 45 0 0 45 0 45
-45 0 -45 0 0 45 0 45 -90 0 -90 0 0 45 0 45 -90 0 -90 0 0 45 0 45 -135 0
-135 0 0 45 0 45 -135 0 -135 0 0 -45 0 -45 135 0 135 0 0 -90 0 -90 -45 0
-45 0 0 -45 0 -45 -45 0 -45 0 0 -45 0 -45 -45 0 -45 0 0 -45 0 -45 -180 0
-180 0 0 45 0 45 -90 0 -90 0 0 45 0 45 -45 0 -45 0 0 45 0 45 -45 0 -45 0 0
90 0 90 45 0 45 0 0 45 0 45 -135 0 -135 0 0 45 0 45 -315 0 -315 0 0 -45z
m630 -90 l0 -45 -135 0 -135 0 0 -45 0 -45 -90 0 -90 0 0 -45 0 -45 -90 0 -90
0 0 -45 0 -45 -45 0 -45 0 0 -45 0 -45 90 0 90 0 0 45 0 45 45 0 45 0 0 -45 0
-45 45 0 45 0 0 -45 0 -45 45 0 45 0 0 -180 0 -180 -45 0 -45 0 0 -45 0 -45
-45 0 -45 0 0 -45 0 -45 -90 0 -90 0 0 -45 0 -45 -90 0 -90 0 0 -45 0 -45
-135 0 -135 0 0 90 0 90 -45 0 -45 0 0 90 0 90 -45 0 -45 0 0 -90 0 -90 -45 0
-45 0 0 -90 0 -90 -45 0 -45 0 0 -90 0 -90 -45 0 -45 0 0 -90 0 -90 -45 0 -45
0 0 -45 0 -45 -45 0 -45 0 0 -315 0 -315 -45 0 -45 0 0 -45 0 -45 -45 0 -45 0
0 -45 0 -45 -45 0 -45 0 0 -45 0 -45 -45 0 -45 0 0 -45 0 -45 -45 0 -45 0 0
-90 0 -90 -45 0 -45 0 0 -90 0 -90 -45 0 -45 0 0 -315 0 -315 45 0 45 0 0 -90
0 -90 45 0 45 0 0 -90 0 -90 45 0 45 0 0 -45 0 -45 45 0 45 0 0 -90 0 -90 45
0 45 0 0 -45 0 -45 45 0 45 0 0 -45 0 -45 45 0 45 0 0 -45 0 -45 90 0 90 0 0
-45 0 -45 45 0 45 0 0 -45 0 -45 90 0 90 0 0 -45 0 -45 45 0 45 0 0 -180 0
-180 45 0 45 0 0 -90 0 -90 45 0 45 0 0 -45 0 -45 -90 0 -90 0 0 45 0 45 -270
0 -270 0 0 -45 0 -45 -90 0 -90 0 0 -45 0 -45 -90 0 -90 0 0 -45 0 -45 -90 0
-90 0 0 -45 0 -45 -45 0 -45 0 0 -45 0 -45 -90 0 -90 0 0 -45 0 -45 -45 0 -45
0 0 -90 0 -90 -45 0 -45 0 0 -45 0 -45 -45 0 -45 0 0 -45 0 -45 -45 0 -45 0 0
-45 0 -45 -45 0 -45 0 0 -90 0 -90 -45 0 -45 0 0 -180 0 -180 45 0 45 0 0 -45
0 -45 -45 0 -45 0 0 -360 0 -360 45 0 45 0 0 -225 0 -225 45 0 45 0 0 -45 0
-45 -45 0 -45 0 0 45 0 45 -45 0 -45 0 0 225 0 225 -45 0 -45 0 0 360 0 360
45 0 45 0 0 45 0 45 -45 0 -45 0 0 180 0 180 45 0 45 0 0 90 0 90 45 0 45 0 0
45 0 45 45 0 45 0 0 45 0 45 45 0 45 0 0 45 0 45 45 0 45 0 0 90 0 90 45 0 45
0 0 45 0 45 45 0 45 0 0 45 0 45 90 0 90 0 0 45 0 45 45 0 45 0 0 45 0 45 90
0 90 0 0 45 0 45 90 0 90 0 0 45 0 45 90 0 90 0 0 45 0 45 270 0 270 0 0 45 0
45 -45 0 -45 0 0 180 0 180 -90 0 -90 0 0 45 0 45 -45 0 -45 0 0 45 0 45 -90
0 -90 0 0 45 0 45 -45 0 -45 0 0 45 0 45 -45 0 -45 0 0 45 0 45 -45 0 -45 0 0
45 0 45 -45 0 -45 0 0 90 0 90 -45 0 -45 0 0 45 0 45 -45 0 -45 0 0 90 0 90
-45 0 -45 0 0 90 0 90 -45 0 -45 0 0 315 0 315 45 0 45 0 0 90 0 90 45 0 45 0
0 90 0 90 45 0 45 0 0 45 0 45 45 0 45 0 0 45 0 45 45 0 45 0 0 45 0 45 45 0
45 0 0 45 0 45 45 0 45 0 0 315 0 315 45 0 45 0 0 45 0 45 45 0 45 0 0 90 0
90 45 0 45 0 0 90 0 90 45 0 45 0 0 90 0 90 45 0 45 0 0 90 0 90 45 0 45 0 0
90 0 90 45 0 45 0 0 45 0 45 45 0 45 0 0 45 0 45 45 0 45 0 0 45 0 45 45 0 45
0 0 45 0 45 90 0 90 0 0 45 0 45 45 0 45 0 0 45 0 45 90 0 90 0 0 45 0 45 90
0 90 0 0 45 0 45 135 0 135 0 0 -45z m450 -810 l0 -45 90 0 90 0 0 -45 0 -45
45 0 45 0 0 -45 0 -45 45 0 45 0 0 -45 0 -45 45 0 45 0 0 -90 0 -90 -585 0
-585 0 0 90 0 90 45 0 45 0 0 45 0 45 45 0 45 0 0 45 0 45 45 0 45 0 0 45 0
45 135 0 135 0 0 45 0 45 90 0 90 0 0 -45z m-1800 -2205 l0 -90 45 0 45 0 0
-90 0 -90 45 0 45 0 0 -45 0 -45 -45 0 -45 0 0 45 0 45 -45 0 -45 0 0 90 0 90
-45 0 -45 0 0 -45 0 -45 -45 0 -45 0 0 -180 0 -180 45 0 45 0 0 -90 0 -90 45
0 45 0 0 -45 0 -45 90 0 90 0 0 -45 0 -45 135 0 135 0 0 -45 0 -45 90 0 90 0
0 45 0 45 -45 0 -45 0 0 45 0 45 -45 0 -45 0 0 45 0 45 -45 0 -45 0 0 45 0 45
-45 0 -45 0 0 45 0 45 45 0 45 0 0 -45 0 -45 45 0 45 0 0 -45 0 -45 45 0 45 0
0 -45 0 -45 45 0 45 0 0 -45 0 -45 90 0 90 0 0 -45 0 -45 90 0 90 0 0 -45 0
-45 135 0 135 0 0 -45 0 -45 -90 0 -90 0 0 -45 0 -45 -90 0 -90 0 0 45 0 45
-90 0 -90 0 0 45 0 45 -135 0 -135 0 0 45 0 45 -135 0 -135 0 0 45 0 45 -90 0
-90 0 0 45 0 45 -45 0 -45 0 0 45 0 45 -45 0 -45 0 0 90 0 90 -45 0 -45 0 0
180 0 180 45 0 45 0 0 90 0 90 45 0 45 0 0 45 0 45 45 0 45 0 0 -90z m450
-1215 l0 -45 135 0 135 0 0 -45 0 -45 135 0 135 0 0 -45 0 -45 90 0 90 0 0
-45 0 -45 45 0 45 0 0 -45 0 -45 45 0 45 0 0 -45 0 -45 45 0 45 0 0 -45 0 -45
45 0 45 0 0 -225 0 -225 -45 0 -45 0 0 -45 0 -45 -45 0 -45 0 0 -45 0 -45 -90
0 -90 0 0 45 0 45 -90 0 -90 0 0 45 0 45 -45 0 -45 0 0 45 0 45 -45 0 -45 0 0
90 0 90 -45 0 -45 0 0 45 0 45 -45 0 -45 0 0 45 0 45 -45 0 -45 0 0 45 0 45
-45 0 -45 0 0 45 0 45 -45 0 -45 0 0 45 0 45 -45 0 -45 0 0 45 0 45 -45 0 -45
0 0 45 0 45 -45 0 -45 0 0 45 0 45 45 0 45 0 0 45 0 45 135 0 135 0 0 -45z
m2160 -1350 l0 -45 90 0 90 0 0 -45 0 -45 90 0 90 0 0 -45 0 -45 90 0 90 0 0
-45 0 -45 45 0 45 0 0 -45 0 -45 45 0 45 0 0 -45 0 -45 45 0 45 0 0 -45 0 -45
45 0 45 0 0 -45 0 -45 45 0 45 0 0 -45 0 -45 -135 0 -135 0 0 45 0 45 -90 0
-90 0 0 -45 0 -45 45 0 45 0 0 -45 0 -45 45 0 45 0 0 -45 0 -45 45 0 45 0 0
-45 0 -45 -45 0 -45 0 0 -45 0 -45 -45 0 -45 0 0 -45 0 -45 45 0 45 0 0 -45 0
-45 45 0 45 0 0 -45 0 -45 45 0 45 0 0 -405 0 -405 -45 0 -45 0 0 45 0 45 -45
0 -45 0 0 90 0 90 -45 0 -45 0 0 45 0 45 -45 0 -45 0 0 45 0 45 -45 0 -45 0 0
45 0 45 -45 0 -45 0 0 45 0 45 -45 0 -45 0 0 -45 0 -45 -45 0 -45 0 0 -45 0
-45 -45 0 -45 0 0 270 0 270 45 0 45 0 0 45 0 45 -90 0 -90 0 0 -45 0 -45 -45
0 -45 0 0 -45 0 -45 -45 0 -45 0 0 45 0 45 -45 0 -45 0 0 225 0 225 -45 0 -45
0 0 135 0 135 -45 0 -45 0 0 45 0 45 -45 0 -45 0 0 90 0 90 -45 0 -45 0 0 45
0 45 45 0 45 0 0 45 0 45 45 0 45 0 0 45 0 45 225 0 225 0 0 -45z m-2880 -90
l0 -45 135 0 135 0 0 -45 0 -45 45 0 45 0 0 -45 0 -45 45 0 45 0 0 -135 0
-135 -45 0 -45 0 0 -90 0 -90 -135 0 -135 0 0 -90 0 -90 -45 0 -45 0 0 -90 0
-90 -45 0 -45 0 0 -90 0 -90 -45 0 -45 0 0 45 0 45 -45 0 -45 0 0 -45 0 -45
-45 0 -45 0 0 -90 0 -90 -45 0 -45 0 0 -180 0 -180 -45 0 -45 0 0 -90 0 -90
-45 0 -45 0 0 -45 0 -45 -45 0 -45 0 0 -45 0 -45 -45 0 -45 0 0 -45 0 -45 -45
0 -45 0 0 -45 0 -45 -45 0 -45 0 0 135 0 135 45 0 45 0 0 45 0 45 -90 0 -90 0
0 -45 0 -45 -45 0 -45 0 0 225 0 225 -45 0 -45 0 0 90 0 90 45 0 45 0 0 135 0
135 45 0 45 0 0 45 0 45 -90 0 -90 0 0 45 0 45 45 0 45 0 0 90 0 90 45 0 45 0
0 45 0 45 45 0 45 0 0 45 0 45 45 0 45 0 0 45 0 45 45 0 45 0 0 45 0 45 45 0
45 0 0 45 0 45 45 0 45 0 0 45 0 45 90 0 90 0 0 45 0 45 135 0 135 0 0 45 0
45 45 0 45 0 0 45 0 45 45 0 45 0 0 -45z m-270 -1755 l0 -90 45 0 45 0 0 -45
0 -45 45 0 45 0 0 135 0 135 45 0 45 0 0 -270 0 -270 45 0 45 0 0 -180 0 -180
45 0 45 0 0 -45 0 -45 45 0 45 0 0 -45 0 -45 45 0 45 0 0 -45 0 -45 -45 0 -45
0 0 45 0 45 -45 0 -45 0 0 45 0 45 -45 0 -45 0 0 45 0 45 -45 0 -45 0 0 180 0
180 -45 0 -45 0 0 90 0 90 -45 0 -45 0 0 45 0 45 -45 0 -45 0 0 -180 0 -180
-45 0 -45 0 0 -90 0 -90 -45 0 -45 0 0 -45 0 -45 -45 0 -45 0 0 45 0 45 45 0
45 0 0 90 0 90 45 0 45 0 0 315 0 315 45 0 45 0 0 -90z m3510 -135 l0 -45 45
0 45 0 0 -45 0 -45 90 0 90 0 0 -45 0 -45 -90 0 -90 0 0 45 0 45 -45 0 -45 0
0 45 0 45 -90 0 -90 0 0 -45 0 -45 -45 0 -45 0 0 45 0 45 45 0 45 0 0 45 0 45
90 0 90 0 0 -45z"/>
<path d="M4950 9585 l0 -45 -45 0 -45 0 0 -45 0 -45 -45 0 -45 0 0 -45 0 -45
-45 0 -45 0 0 -45 0 -45 45 0 45 0 0 45 0 45 45 0 45 0 0 45 0 45 45 0 45 0 0
45 0 45 45 0 45 0 0 45 0 45 -45 0 -45 0 0 -45z"/>
<path d="M5220 5985 l0 -45 45 0 45 0 0 45 0 45 -45 0 -45 0 0 -45z"/>
<path d="M5400 5895 l0 -45 45 0 45 0 0 45 0 45 -45 0 -45 0 0 -45z"/>
<path d="M6750 4275 l0 -45 135 0 135 0 0 -45 0 -45 45 0 45 0 0 -45 0 -45 45
0 45 0 0 -45 0 -45 45 0 45 0 0 -45 0 -45 45 0 45 0 0 -135 0 -135 45 0 45 0
0 -90 0 -90 45 0 45 0 0 -135 0 -135 45 0 45 0 0 -90 0 -90 45 0 45 0 0 135 0
135 -45 0 -45 0 0 90 0 90 -45 0 -45 0 0 90 0 90 -45 0 -45 0 0 135 0 135 -45
0 -45 0 0 45 0 45 -45 0 -45 0 0 45 0 45 -45 0 -45 0 0 45 0 45 -45 0 -45 0 0
45 0 45 -45 0 -45 0 0 45 0 45 -135 0 -135 0 0 -45z"/>
<path d="M7560 3825 l0 -45 45 0 45 0 0 45 0 45 -45 0 -45 0 0 -45z"/>
<path d="M4050 4095 l0 -45 -45 0 -45 0 0 -45 0 -45 -45 0 -45 0 0 -90 0 -90
-45 0 -45 0 0 -45 0 -45 -45 0 -45 0 0 -45 0 -45 -45 0 -45 0 0 -45 0 -45 -45
0 -45 0 0 -90 0 -90 -45 0 -45 0 0 -180 0 -180 -45 0 -45 0 0 -180 0 -180 45
0 45 0 0 180 0 180 45 0 45 0 0 180 0 180 45 0 45 0 0 90 0 90 45 0 45 0 0 45
0 45 45 0 45 0 0 45 0 45 45 0 45 0 0 45 0 45 45 0 45 0 0 90 0 90 45 0 45 0
0 45 0 45 90 0 90 0 0 45 0 45 -90 0 -90 0 0 -45z"/>
<path d="M7830 9585 l0 -45 45 0 45 0 0 -45 0 -45 45 0 45 0 0 -45 0 -45 45 0
45 0 0 -45 0 -45 45 0 45 0 0 45 0 45 -45 0 -45 0 0 45 0 45 -45 0 -45 0 0 45
0 45 -45 0 -45 0 0 45 0 45 -45 0 -45 0 0 -45z"/>
<path d="M8190 9135 l0 -45 45 0 45 0 0 45 0 45 -45 0 -45 0 0 -45z"/>
<path d="M8280 8955 l0 -45 45 0 45 0 0 45 0 45 -45 0 -45 0 0 -45z"/>
<path d="M4410 7920 l0 -180 45 0 45 0 0 -90 0 -90 45 0 45 0 0 -135 0 -135
45 0 45 0 0 -45 0 -45 45 0 45 0 0 -90 0 -90 45 0 45 0 0 -45 0 -45 135 0 135
0 0 -45 0 -45 180 0 180 0 0 -45 0 -45 945 0 945 0 0 45 0 45 180 0 180 0 0
45 0 45 135 0 135 0 0 45 0 45 45 0 45 0 0 90 0 90 45 0 45 0 0 45 0 45 45 0
45 0 0 135 0 135 45 0 45 0 0 90 0 90 45 0 45 0 0 180 0 180 -45 0 -45 0 0
-45 0 -45 -135 0 -135 0 0 -45 0 -45 -225 0 -225 0 0 -45 0 -45 -1215 0 -1215
0 0 45 0 45 -225 0 -225 0 0 45 0 45 -135 0 -135 0 0 45 0 45 -45 0 -45 0 0
-180z m360 -45 l0 -45 90 0 90 0 0 -90 0 -90 45 0 45 0 0 45 0 45 45 0 45 0 0
45 0 45 45 0 45 0 0 -45 0 -45 270 0 270 0 0 -45 0 -45 45 0 45 0 0 45 0 45
270 0 270 0 0 -180 0 -180 45 0 45 0 0 180 0 180 270 0 270 0 0 -45 0 -45 45
0 45 0 0 45 0 45 270 0 270 0 0 45 0 45 45 0 45 0 0 -45 0 -45 45 0 45 0 0
-45 0 -45 45 0 45 0 0 90 0 90 90 0 90 0 0 45 0 45 90 0 90 0 0 -90 0 -90 -45
0 -45 0 0 -225 0 -225 -45 0 -45 0 0 -45 0 -45 -45 0 -45 0 0 -90 0 -90 -135
0 -135 0 0 -45 0 -45 -90 0 -90 0 0 45 0 45 -45 0 -45 0 0 45 0 45 -45 0 -45
0 0 -135 0 -135 -315 0 -315 0 0 45 0 45 -45 0 -45 0 0 -45 0 -45 -225 0 -225
0 0 45 0 45 -45 0 -45 0 0 -45 0 -45 -315 0 -315 0 0 135 0 135 -45 0 -45 0 0
-45 0 -45 -45 0 -45 0 0 -45 0 -45 -90 0 -90 0 0 45 0 45 -135 0 -135 0 0 90
0 90 -45 0 -45 0 0 45 0 45 -45 0 -45 0 0 225 0 225 -45 0 -45 0 0 90 0 90 90
0 90 0 0 -45z"/>
<path d="M5130 7560 l0 -180 45 0 45 0 0 -180 0 -180 45 0 45 0 0 180 0 180
-45 0 -45 0 0 180 0 180 -45 0 -45 0 0 -180z"/>
<path d="M7650 7560 l0 -180 -45 0 -45 0 0 -180 0 -180 45 0 45 0 0 180 0 180
45 0 45 0 0 180 0 180 -45 0 -45 0 0 -180z"/>
<path d="M4860 7560 l0 -90 -45 0 -45 0 0 -90 0 -90 45 0 45 0 0 90 0 90 45 0
45 0 0 90 0 90 -45 0 -45 0 0 -90z"/>
<path d="M5670 7560 l0 -90 -45 0 -45 0 0 -90 0 -90 -45 0 -45 0 0 -90 0 -90
45 0 45 0 0 90 0 90 45 0 45 0 0 90 0 90 45 0 45 0 0 90 0 90 -45 0 -45 0 0
-90z"/>
<path d="M5850 7515 l0 -135 45 0 45 0 0 -90 0 -90 45 0 45 0 0 -135 0 -135
45 0 45 0 0 135 0 135 -45 0 -45 0 0 90 0 90 -45 0 -45 0 0 135 0 135 -45 0
-45 0 0 -135z"/>
<path d="M6930 7515 l0 -135 -45 0 -45 0 0 -90 0 -90 -45 0 -45 0 0 -135 0
-135 45 0 45 0 0 135 0 135 45 0 45 0 0 90 0 90 45 0 45 0 0 135 0 135 -45 0
-45 0 0 -135z"/>
<path d="M7110 7560 l0 -90 45 0 45 0 0 -90 0 -90 45 0 45 0 0 -90 0 -90 45 0
45 0 0 90 0 90 -45 0 -45 0 0 90 0 90 -45 0 -45 0 0 90 0 90 -45 0 -45 0 0
-90z"/>
<path d="M7920 7560 l0 -90 45 0 45 0 0 -90 0 -90 45 0 45 0 0 90 0 90 -45 0
-45 0 0 90 0 90 -45 0 -45 0 0 -90z"/>
<path d="M6300 7290 l0 -90 -45 0 -45 0 0 -135 0 -135 45 0 45 0 0 135 0 135
45 0 45 0 0 90 0 90 -45 0 -45 0 0 -90z"/>
<path d="M6480 7290 l0 -90 45 0 45 0 0 -135 0 -135 45 0 45 0 0 135 0 135
-45 0 -45 0 0 90 0 90 -45 0 -45 0 0 -90z"/>
</g>
</svg>
